<?xml version="1.0" encoding="UTF-8"?>
<svg id="Calque_2" data-name="Calque 2" xmlns="http://www.w3.org/2000/svg" viewBox="0 0 134.77 124.92">
  <defs>
    <style>
      .cls-1 {
        fill: none;
        stroke: #344154;
        stroke-linecap: round;
        stroke-linejoin: round;
        stroke-width: 3px;
      }

      .cls-2 {
        fill: #ffc524;
      }
    </style>
  </defs>
  <g id="Icon_Set" data-name="Icon Set">
    <g>
      <g>
        <line class="cls-1" x1="94.31" y1="68.26" x2="94.31" y2="58.54"/>
        <line class="cls-1" x1="81.67" y1="71.37" x2="77.42" y2="60.78"/>
        <line class="cls-1" x1="107.63" y1="71.37" x2="111.19" y2="61.6"/>
      </g>
      <g>
        <rect class="cls-1" x="110.56" y="95.9" width="20.51" height="10.24" rx="1.75" ry="1.75"/>
        <path class="cls-1" d="M128.43,95.9v-12.02c0-2.9-2.35-5.26-5.26-5.26h-43.44c-2.9,0-5.26,2.35-5.26,5.26v34.29c0,2.9,2.35,5.26,5.26,5.26h43.44c2.9,0,5.26-2.35,5.26-5.26v-12.02"/>
        <g>
          <path class="cls-1" d="M88.52,106.78c0,3.19,2.59,5.78,5.78,5.78s5.78-2.59,5.78-5.78-2.37-4.67-5.78-5.78c-3.04-.99-5.78-2.59-5.78-5.78s2.59-5.78,5.78-5.78,5.78,2.59,5.78,5.78"/>
          <line class="cls-1" x1="94.3" y1="86.21" x2="94.3" y2="89.48"/>
          <line class="cls-1" x1="94.3" y1="112.57" x2="94.3" y2="115.83"/>
        </g>
      </g>
      <polyline class="cls-1" points="14.66 41.97 14.66 116.06 23.34 116.06"/>
      <line class="cls-1" x1="120.14" y1="41.97" x2="120.14" y2="72.62"/>
      <path class="cls-1" d="M3.7,23.18c-4.37,4.37-1.87,12.1,4.27,12.67.28.03.56.04.84.04,3.85,0,7.12-2.45,8.37-5.87,1.24,3.42,4.52,5.87,8.37,5.87s7.12-2.45,8.37-5.87c1.24,3.42,4.52,5.87,8.37,5.87s7.12-2.45,8.37-5.87c1.24,3.42,4.52,5.87,8.37,5.87s7.12-2.45,8.37-5.87c1.24,3.42,4.52,5.87,8.37,5.87s7.12-2.45,8.37-5.87c1.24,3.42,4.52,5.87,8.37,5.87s7.12-2.45,8.37-5.87c1.24,3.42,4.52,5.87,8.37,5.87s7.12-2.45,8.37-5.87c1.24,3.42,4.52,5.87,8.37,5.87.05,0,.1,0,.15,0,6.49-.11,9.53-8.15,4.94-12.74L109.42,1.5h-40.97c-10.11,0,21.1,0-43.06,0L3.7,23.18Z"/>
      <rect class="cls-1" x="30.67" y="60.57" width="24" height="55.49"/>
      <path class="cls-1" d="M37.09,80.32c0,.23-.19.42-.42.42s-.42-.19-.42-.42.19-.42.42-.42.42.19.42.42Z"/>
      <circle class="cls-1" cx="115.82" cy="100.85" r=".31"/>
      <path class="cls-2" d="M48.67,90.52l-.65,1.9c-2.28,6.66-6.09,12.71-11.11,17.65h11.76v-19.55Z"/>
    </g>
  </g>
</svg>