<?xml version="1.0" encoding="UTF-8"?>
<svg id="Calque_2" data-name="Calque 2" xmlns="http://www.w3.org/2000/svg" viewBox="0 0 133 128.64">
  <defs>
    <style>
      .cls-1 {
        fill: none;
        stroke: #344154;
        stroke-linecap: round;
        stroke-linejoin: round;
        stroke-width: 3px;
      }

      .cls-2 {
        fill: #ffc524;
      }
    </style>
  </defs>
  <g id="Icon_Set" data-name="Icon Set">
    <g>
      <g>
        <polyline class="cls-1" points="63.43 25.92 63.43 18.55 46.3 1.5 1.5 1.5 1.5 66.04"/>
        <path class="cls-2" d="M49.18,33.56H15.75c-1.1,0-2-.9-2-2s.9-2,2-2h33.44c1.1,0,2,.9,2,2s-.9,2-2,2Z"/>
        <path class="cls-2" d="M48.85,42.7H15.42c-1.1,0-2-.9-2-2s.9-2,2-2h33.43c1.1,0,2,.9,2,2s-.9,2-2,2Z"/>
        <path class="cls-2" d="M49.35,24.42H15.91c-1.1,0-2-.9-2-2s.9-2,2-2h33.44c1.1,0,2,.9,2,2s-.9,2-2,2Z"/>
      </g>
      <g>
        <path class="cls-1" d="M103.63,49.67c.72,4.29,1.38,9.21,1.35,12.7-.19,4.02-1.15,7.11-3.66,10.21-1.67,2.05-2.37,4.72-2.06,7.35l.14,1.21c.11.93.62,1.77,1.4,2.3.28.19.58.33.9.42l14.78,4.29c1.86.41,3.81,1.43,5.73,3.01,3.01,2.49,5.08,5.96,5.84,9.77l3.46,26.21"/>
        <path class="cls-1" d="M87.19,20.53c8.63,0,17.67,4.8,21.28,12.87,1.59,3.55,2.24,7.45,2.69,11.32.63,5.45.91,10.64,3.53,15.56,1.91,3.59,4.83,6.11,9.45,6.67,0,0-5.65,9.68-17.93,7.58"/>
        <path class="cls-1" d="M87.19,20.53c-8.63,0-17.67,4.8-21.28,12.87-1.59,3.55-2.24,7.45-2.69,11.32-.63,5.45-.91,10.64-3.53,15.56-1.91,3.59-4.83,6.11-9.45,6.67,0,0,5.65,9.68,17.93,7.58"/>
        <polyline class="cls-1" points="73.58 83.44 87.19 93.6 100.79 83.44"/>
        <line class="cls-1" x1="102.03" y1="117.07" x2="114.65" y2="117.07"/>
        <path class="cls-1" d="M42.87,127.14l3.46-26.21c.76-3.82,2.84-7.29,5.84-9.77,1.92-1.58,3.87-2.6,5.73-3.01l14.78-4.29c.32-.09.63-.24.9-.42.78-.52,1.29-1.36,1.4-2.3l.14-1.21c.31-2.63-.39-5.3-2.06-7.35-2.51-3.09-3.48-6.19-3.66-10.21-.04-4.14.9-10.28,1.75-15.01.78-4.29,3.64-7.91,7.63-9.67h0c3.22-1.42,7.04-.59,9.27,2.13.02.02.03.04.05.06,1.57,1.93,2.73,4.19,4.46,5.98,2.81,2.9,7.09,4.31,11.08,3.64"/>
        <path class="cls-1" d="M84.29,29.98c3.35.03,6.66,1.69,8.69,4.35,1.6,2.1,2.44,4.76,4.34,6.59,1.92,1.85,4.84,2.6,7.41,1.91"/>
      </g>
      <g>
        <circle class="cls-1" cx="25.49" cy="79.43" r="19.17" transform="translate(-57.68 72.98) rotate(-67.77)"/>
        <polyline class="cls-1" points="17.27 80.43 23.82 86.28 34.43 73.31"/>
      </g>
    </g>
  </g>
</svg>