<?xml version="1.0" encoding="UTF-8"?>
<svg id="Calque_2" data-name="Calque 2" xmlns="http://www.w3.org/2000/svg" viewBox="0 0 96.22 129.28">
  <defs>
    <style>
      .cls-1 {
        fill: none;
        stroke: #344154;
        stroke-linecap: round;
        stroke-linejoin: round;
        stroke-width: 3px;
      }

      .cls-2 {
        fill: #ffc524;
      }
    </style>
  </defs>
  <g id="Icon_Set" data-name="Icon Set">
    <g>
      <rect class="cls-1" x="66.88" y="76.81" width="27.56" height="17.67" rx="2.87" ry="2.87"/>
      <path class="cls-2" d="M72.88,88.48v-5.67h15.56v5.67l-.69-.25c-4.58-1.67-9.6-1.67-14.17,0l-.69.25Z"/>
      <path class="cls-1" d="M75.16,76.81v-3.92c0-1.48,1.2-2.67,2.67-2.67h5.63c1.48,0,2.67,1.2,2.67,2.67v3.92"/>
      <g>
        <circle class="cls-1" cx="14.99" cy="13.14" r="11.64" transform="translate(-4.9 14.45) rotate(-45)"/>
        <line class="cls-1" x1="23.32" y1="76.96" x2="23.32" y2="117.4"/>
        <line class="cls-1" x1="6.66" y1="116.71" x2="6.66" y2="76.96"/>
        <path class="cls-1" d="M14.99,42.68v4.86c0,4.75,3.85,8.6,8.6,8.6h18.93"/>
        <path class="cls-1" d="M30.57,127.78H6.66v-11.07h12.84c6.11,0,11.07,4.96,11.07,11.07h0Z"/>
        <path class="cls-1" d="M28.48,49.82v-5.6c0-7.45-6.04-13.49-13.49-13.49h0c-7.45,0-13.49,6.04-13.49,13.49v12.09c0,7.2,1.77,14.3,5.16,20.66h16.66c2.34-4.39,3.91-9.13,4.65-14.01"/>
      </g>
      <circle class="cls-1" cx="81.23" cy="13.14" r="11.64" transform="translate(-.85 19.01) rotate(-13.28)"/>
      <line class="cls-1" x1="72.9" y1="100.48" x2="72.9" y2="117.4"/>
      <line class="cls-1" x1="89.56" y1="116.71" x2="89.56" y2="100.48"/>
      <path class="cls-1" d="M65.65,127.78h23.91v-11.07h-12.84c-6.11,0-11.07,4.96-11.07,11.07h0Z"/>
      <path class="cls-1" d="M69.58,68.9c-1.22-4.07-1.84-8.31-1.84-12.59v-12.09c0-7.45,6.04-13.49,13.49-13.49h0c7.45,0,13.49,6.04,13.49,13.49v12.09c0,4.28-.63,8.52-1.84,12.59"/>
      <line class="cls-1" x1="81.23" y1="42.68" x2="81.23" y2="70.21"/>
      <line class="cls-1" x1="67.74" y1="56.31" x2="52.39" y2="56.31"/>
    </g>
  </g>
</svg>