<?xml version="1.0" encoding="UTF-8"?>
<svg id="Calque_2" data-name="Calque 2" xmlns="http://www.w3.org/2000/svg" viewBox="0 0 125.9 130.79">
  <defs>
    <style>
      .cls-1 {
        fill: none;
        stroke: #344154;
        stroke-linecap: round;
        stroke-linejoin: round;
        stroke-width: 3px;
      }

      .cls-2 {
        fill: #ffc524;
      }
    </style>
  </defs>
  <g id="Icon_Set" data-name="Icon Set">
    <g>
      <path class="cls-1" d="M24.23,25.63c0,5.82-4.71,10.53-10.53,10.53S3.17,31.44,3.17,25.63s4.71-10.53,10.53-10.53,10.53,4.71,10.53,10.53Z"/>
      <line class="cls-1" x1="21.23" y1="83.34" x2="21.23" y2="119.91"/>
      <line class="cls-1" x1="6.17" y1="119.28" x2="6.17" y2="83.34"/>
      <path class="cls-1" d="M13.7,52.34v4.39c0,4.29,3.48,7.78,7.78,7.78h20.21"/>
      <path class="cls-1" d="M27.78,129.29h0c0-5.53-4.48-10.01-10.01-10.01H6.17v10.01h21.62Z"/>
      <path class="cls-1" d="M25.9,57.59v-3.86c0-6.74-5.46-12.2-12.2-12.2h0c-6.74,0-12.2,5.46-12.2,12.2v10.93c0,6.51,1.6,12.93,4.67,18.68h15.07c1.99-3.74,3.37-7.76,4.08-11.91"/>
      <path class="cls-1" d="M85.21,129.29c4.41,0,8.46-2.74,9.83-6.94.38-1.17.57-2.33.58-3.35,0-3.78-1.3-7.44-3.56-10.48l-7.63-12.35h-12.8l-7.79,12.35c-2.26,3.03-3.57,6.7-3.56,10.48,0,.04,0,.07,0,.11.05,5.66,4.76,10.18,10.42,10.18h14.52Z"/>
      <path class="cls-1" d="M84.42,96.17l4.73-4.59-1.7-1.7c-1.27-1.27-3.34-1.27-4.61,0l-1.37,1.37-.6-.6c-1.57-1.57-4.12-1.57-5.7,0l-.6.6-1.37-1.37c-1.27-1.27-3.34-1.27-4.61,0l-1.7,1.7,4.73,4.59"/>
      <line class="cls-1" x1="115.18" y1="73.32" x2="115.18" y2="22.15"/>
      <polyline class="cls-1" points="124.4 27.26 77.94 1.5 31.47 27.26"/>
      <line class="cls-1" x1="40.69" y1="22.15" x2="40.69" y2="58.43"/>
      <path class="cls-1" d="M50.36,73.32v-31.73c0-6.28,5.09-11.37,11.37-11.37h0c6.28,0,11.37,5.09,11.37,11.37v31.73"/>
      <path class="cls-1" d="M105.51,73.32v-31.73c0-6.28-5.09-11.37-11.37-11.37h0c-6.28,0-11.37,5.09-11.37,11.37v31.73"/>
      <path class="cls-1" d="M40.69,73.32h79.1c2.55,0,4.62,2.07,4.62,4.62v8.27"/>
      <path class="cls-1" d="M74.23,116.88c0,2.05,1.66,3.71,3.71,3.71s3.71-1.66,3.71-3.71-1.52-3-3.71-3.71c-1.95-.64-3.71-1.66-3.71-3.71s1.66-3.71,3.71-3.71,3.71,1.66,3.71,3.71"/>
      <line class="cls-1" x1="77.94" y1="103.68" x2="77.94" y2="105.77"/>
      <line class="cls-1" x1="77.94" y1="120.59" x2="77.94" y2="122.68"/>
      <path class="cls-2" d="M94.14,36.22c-2.96,0-5.37,2.41-5.37,5.37v21.82h10.74v-21.82c0-2.96-2.41-5.37-5.37-5.37Z"/>
      <path class="cls-2" d="M61.73,36.22c-2.96,0-5.37,2.41-5.37,5.37v21.82h10.74v-21.82c0-2.96-2.41-5.37-5.37-5.37Z"/>
    </g>
  </g>
</svg>