<?xml version="1.0" encoding="UTF-8" standalone="no"?>
<svg
   xmlns:dc="http://purl.org/dc/elements/1.1/"
   xmlns:cc="http://creativecommons.org/ns#"
   xmlns:rdf="http://www.w3.org/1999/02/22-rdf-syntax-ns#"
   xmlns:svg="http://www.w3.org/2000/svg"
   xmlns="http://www.w3.org/2000/svg"
   viewBox="0 0 666.66669 528.39203"
   height="528.39203"
   width="666.66669"
   xml:space="preserve"
   id="svg2"
   version="1.1"><metadata
     id="metadata8"><rdf:RDF><cc:Work
         rdf:about=""><dc:format>image/svg+xml</dc:format><dc:type
           rdf:resource="http://purl.org/dc/dcmitype/StillImage" /></cc:Work></rdf:RDF></metadata><defs
     id="defs6"><clipPath
       id="clipPath18"
       clipPathUnits="userSpaceOnUse"><path
         id="path16"
         d="M 0,396.294 H 500 V 0 H 0 Z" /></clipPath></defs><g
     transform="matrix(1.3333333,0,0,-1.3333333,0,528.392)"
     id="g10"><g
       id="g12"><g
         clip-path="url(#clipPath18)"
         id="g14"><g
           transform="translate(158.999,270.6574)"
           id="g20"><path
             id="path22"
             style="fill:#f9c535;fill-opacity:1;fill-rule:nonzero;stroke:none"
             d="m 0,0 0.048,0.028 c -0.829,0.544 -1.761,1.158 -2.863,1.897 -0.339,0.252 -0.716,0.515 -1.082,0.814 -0.509,0.379 -1.044,0.806 -1.617,1.242 -0.744,0.562 -1.515,1.173 -2.351,1.841 -12.503,10.666 -22.28,22.272 -29.278,34.72 -0.628,1.049 -1.163,2.117 -1.725,3.18 -0.347,0.672 -0.692,1.343 -1.032,2.016 -0.666,1.312 -1.283,2.653 -1.911,3.956 -0.58,1.331 -1.121,2.651 -1.615,4 -1.628,4.408 -2.763,8.685 -3.386,12.908 -0.14,0.849 -0.241,1.687 -0.305,2.516 -0.571,5.791 -0.126,11.433 1.304,16.815 1.742,6.556 4.317,10.903 7.889,13.2 0.441,0.288 0.883,0.577 1.343,0.779 3.211,1.702 6.782,2.011 10.723,0.963 2.426,-0.644 4.826,-1.687 7.277,-3.15 1.057,-0.605 2.093,-1.287 3.147,-2.053 2.156,-1.506 4.307,-3.336 6.474,-5.412 5.842,-5.65 10.821,-12.41 15.145,-20.415 4.268,-7.909 6.871,-15.824 7.843,-23.466 0.485,-3.212 0.617,-6.534 0.481,-9.946 C 14.479,35.71 14.45,34.988 14.42,34.265 14.323,32.83 14.178,31.368 13.946,29.888 13.869,29.138 13.743,28.36 13.59,27.63 13.54,27.44 13.527,27.24 13.477,27.05 13.102,24.878 12.594,22.66 11.99,20.387 9.372,10.533 5.372,3.725 0.048,0.028 0.086,0.018 0.086,0.018 0.114,-0.031 0.152,-0.041 0.217,-0.099 0.255,-0.109 l -0.189,0.051 -0.114,0.03 z M 226.503,40.038 C 220.269,31.764 214.426,24.707 208.976,18.786 203.486,12.904 196.977,7.376 189.41,2.239 c -6.941,-4.666 -14.274,-8.274 -22.077,-10.862 -7.803,-2.548 -15.174,-3.842 -22.075,-3.842 -8.666,0 -15.606,1.921 -20.703,5.685 -5.138,3.568 -9.098,8.549 -11.882,14.861 -2.783,6.392 -4.196,13.567 -4.196,21.606 0,10.665 2.471,21.37 7.372,32.075 8.47,19.409 18.234,33.721 29.252,42.975 11.018,9.254 21.566,13.881 31.604,13.881 7.803,0 13.685,-1.961 17.724,-5.881 3.999,-3.882 5.999,-8.746 5.999,-14.549 0,-5.097 -1.568,-10.116 -4.666,-15.017 -3.137,-4.902 -7.489,-8.47 -13.058,-10.705 -0.47,-0.196 -0.902,-0.431 -1.372,-0.588 l -2.157,-23.292 c 5.725,2.941 11.136,7.137 16.234,12.509 10.038,11.136 15.057,22.507 15.057,34.113 0,7.333 -2.157,13.686 -6.509,19.057 -4.352,5.333 -10.431,8.784 -18.234,10.352 -3.803,0.667 -7.449,1.02 -11.018,1.02 -14.939,0 -29.212,-5.411 -42.818,-16.234 C 118.319,98.581 106.36,82.818 96.126,62.114 93.396,56.474 90.993,50.155 88.923,43.148 85.129,53.119 80.2,63.151 74.106,73.219 c -1.057,1.822 -2.125,3.607 -3.258,5.45 -1.022,1.651 -2.082,3.311 -3.189,4.945 -1.164,1.729 -2.328,3.458 -3.529,5.198 -0.399,0.632 -0.847,1.239 -1.294,1.844 -0.028,0.048 -0.056,0.096 -0.094,0.106 l -0.084,0.145 c -0.148,0.201 -0.298,0.404 -0.437,0.643 -0.038,0.01 -0.038,0.01 -0.066,0.059 -0.271,0.355 -0.503,0.701 -0.773,1.057 -0.251,0.433 -0.587,0.846 -0.942,1.346 -0.093,0.106 -0.149,0.201 -0.232,0.345 -0.58,0.722 -1.148,1.481 -1.727,2.204 -0.337,0.413 -0.662,0.865 -0.989,1.317 -0.728,0.924 -1.457,1.848 -2.175,2.809 -0.28,0.318 -0.55,0.675 -0.86,1.041 -0.662,0.865 -1.372,1.703 -2.073,2.579 -0.205,0.298 -0.447,0.606 -0.634,0.818 l -0.076,0.02 c -0.215,0.261 -0.392,0.51 -0.607,0.77 -0.541,0.712 -1.169,1.405 -1.823,2.148 -0.187,0.212 -0.374,0.423 -0.561,0.635 -0.149,0.202 -0.337,0.414 -0.562,0.636 0.01,0.039 -0.027,0.049 -0.027,0.049 -0.243,0.307 -0.496,0.577 -0.749,0.847 -0.711,0.839 -1.497,1.697 -2.311,2.602 -0.252,0.271 -0.477,0.493 -0.721,0.802 -0.159,0.163 -0.346,0.375 -0.543,0.549 l -1.541,-5.798 c 3.99,-4.834 7.468,-9.612 10.462,-14.221 0.076,-0.02 0.094,-0.106 0.122,-0.154 0.038,-0.01 0.076,-0.021 0.066,-0.058 2.22,-2.944 3.384,-5.281 3.697,-5.932 0.056,-0.096 0.111,-0.193 0.111,-0.193 0.362,-0.624 0.762,-1.257 1.076,-1.909 0.046,-0.132 0.139,-0.239 0.185,-0.373 0.688,-1.075 1.289,-2.168 1.806,-3.279 0.473,-0.816 0.87,-1.611 1.257,-2.445 7.598,-14.921 9.864,-25.787 10.156,-27.284 0.028,-0.048 0.018,-0.086 0.008,-0.124 l 0.027,-0.048 c -0.01,-0.038 0.028,-0.048 0.028,-0.048 0.651,-2.891 1.141,-5.781 1.432,-8.657 0.109,-0.962 0.181,-1.914 0.253,-2.867 0.217,-2.694 0.272,-5.387 0.204,-8.087 C 72.955,26.745 72.078,20.852 70.518,14.978 68.433,7.132 65.15,0.581 60.745,-4.7 59.807,-5.79 58.764,-6.811 57.676,-7.698 57.262,-8.034 56.858,-8.334 56.407,-8.659 55.561,-9.246 54.64,-9.812 53.662,-10.284 l -0.037,0.01 c -0.95,-0.518 -1.955,-0.94 -2.988,-1.315 l -0.037,0.01 c -1.616,-0.586 -3.316,-1.026 -5.098,-1.323 -6.484,-1.036 -13.468,-0.6 -21.047,1.413 -2.539,0.675 -5.076,1.512 -7.648,2.52 -0.993,0.384 -2.014,0.818 -2.997,1.241 -2.966,1.358 -5.968,2.885 -8.996,4.623 -0.027,0.048 -0.027,0.048 -0.065,0.058 2.005,0.522 3.954,1.14 5.772,1.875 1.818,0.734 3.542,1.573 5.126,2.492 0.527,0.305 1.054,0.612 1.592,0.955 0.49,0.317 0.99,0.67 1.489,1.025 l 0.011,0.038 c 0.807,0.597 1.577,1.205 2.367,1.886 2.226,1.965 4.151,4.171 5.834,6.687 l 0.01,0.037 c 0.875,1.309 1.657,2.724 2.373,4.198 l 0.01,0.038 c 1.051,2.276 1.933,4.679 2.629,7.294 1.429,5.382 1.939,11.576 1.615,18.599 -0.147,2.352 -0.358,4.76 -0.663,7.276 -0.293,2.715 -0.758,5.395 -1.357,8.029 -1.178,5.182 -2.941,10.153 -5.259,14.867 -0.757,1.581 -1.599,3.144 -2.537,4.651 -2.227,3.837 -4.864,7.499 -7.913,10.988 -1.217,1.377 -2.415,2.67 -3.672,3.895 -0.647,0.619 -1.293,1.238 -1.893,1.883 -8.159,7.768 -16.902,12.89 -26.262,15.378 -4.054,1.077 -7.881,1.486 -11.519,1.235 -1.2,-0.088 -2.371,-0.223 -3.525,-0.443 -0.65,-0.153 -1.298,-0.304 -1.947,-0.457 -0.028,0.048 -0.028,0.048 -0.038,0.01 -1.7,-0.44 -3.363,-1.053 -4.954,-1.848 -6.438,-3.158 -10.846,-9.209 -13.212,-18.115 -1.087,-4.092 -1.823,-8.238 -2.209,-12.436 -0.08,-0.302 -0.095,-0.664 -0.11,-1.026 -0.133,-1.871 -0.237,-3.791 -0.283,-5.645 -0.019,-1.902 0,-3.813 0.144,-5.718 0.541,-9.11 2.62,-18.385 6.238,-27.827 2.208,-5.74 4.799,-11.256 7.888,-16.58 1.214,-2.148 2.487,-4.231 3.834,-6.334 1.685,-2.517 3.455,-5.015 5.332,-7.421 1.165,-1.567 2.416,-3.117 3.679,-4.628 4.093,-4.903 8.646,-9.601 13.611,-14.126 1.623,-1.526 3.37,-3.045 5.202,-4.547 1.805,-1.453 3.685,-2.926 5.662,-4.344 1.026,-0.719 2.052,-1.438 3.078,-2.157 1.064,-0.73 2.138,-1.42 3.212,-2.112 0.753,-0.524 1.517,-1.011 2.328,-1.47 1.461,-0.915 2.932,-1.794 4.478,-2.69 2.82,-1.601 5.633,-3.08 8.437,-4.434 1.539,-0.774 3.061,-1.462 4.592,-2.112 5.056,-2.196 10.099,-3.982 15.14,-5.321 3.221,-0.857 6.378,-1.493 9.397,-1.89 1.139,-0.14 2.241,-0.27 3.352,-0.363 4.456,-0.332 8.682,-0.156 12.732,0.431 0,0 0.01,0.038 0.048,0.028 3.023,0.536 5.945,1.301 8.775,2.334 1.884,0.676 3.657,1.544 5.346,2.555 5.142,3.097 9.326,7.706 12.599,13.787 0.477,-0.806 0.944,-1.62 1.465,-2.393 6.235,-9.253 16.469,-14.43 30.742,-15.528 11.135,-0.901 23.84,2.549 38.113,10.353 14.272,7.802 27.957,18.625 41.132,32.427 11.371,12.273 21.41,25.527 30.075,39.799 z" /></g><g
           transform="translate(0,161.721)"
           id="g24"><path
             id="path26"
             style="fill:#003a20;fill-opacity:1;fill-rule:nonzero;stroke:none"
             d="M 0,0 H 67.961 V -19.376 H 23.631 V -36.843 H 63.56 V -55.191 H 23.631 v -19.376 h 44.33 v -19.376 l -67.961,0 z" /></g><g
           transform="translate(83.2359,161.721)"
           id="g28"><path
             id="path30"
             style="fill:#003a20;fill-opacity:1;fill-rule:nonzero;stroke:none"
             d="M 0,0 H 23.925 L 23.631,-74.567 H 54.897 V -93.943 H 0 Z" /></g><g
           transform="translate(144.7476,101.0971)"
           id="g32"><path
             id="path34"
             style="fill:#003a20;fill-opacity:1;fill-rule:nonzero;stroke:none"
             d="m 0,0 h 23.631 c 0.441,-9.541 4.111,-15.853 17.763,-15.853 12.183,0 15.119,4.992 15.119,9.394 0,19.377 -54.9,3.67 -54.9,39.928 0,14.384 8.663,28.477 38.459,28.477 29.652,0 38.018,-14.093 38.459,-33.175 H 55.044 c -0.441,7.928 -2.789,14.387 -16,14.387 -11.008,0 -13.797,-4.405 -13.797,-8.369 0,-17.173 54.31,-2.789 54.31,-39.925 0,-13.506 -7.191,-29.506 -39.485,-29.506 C 10.861,-34.642 0,-21.577 0,0" /></g><g
           transform="translate(288.7543,101.3909)"
           id="g36"><path
             id="path38"
             style="fill:#003a20;fill-opacity:1;fill-rule:nonzero;stroke:none"
             d="M 0,0 -13.065,39.634 -25.835,0 Z M -27.889,60.33 H 2.054 L 35.23,-33.613 H 10.276 l -5.14,16.147 h -36.108 l -5.139,-16.147 h -24.954 z" /></g><g
           transform="translate(329.2795,101.0971)"
           id="g40"><path
             id="path42"
             style="fill:#003a20;fill-opacity:1;fill-rule:nonzero;stroke:none"
             d="m 0,0 h 23.631 c 0.441,-9.541 4.111,-15.853 17.764,-15.853 12.182,0 15.118,4.992 15.118,9.394 0,19.377 -54.9,3.67 -54.9,39.928 0,14.384 8.663,28.477 38.459,28.477 29.652,0 38.018,-14.093 38.459,-33.175 H 55.044 c -0.441,7.928 -2.789,14.387 -16,14.387 -11.008,0 -13.797,-4.405 -13.797,-8.369 0,-17.173 54.31,-2.789 54.31,-39.925 0,-13.506 -7.191,-29.506 -39.485,-29.506 C 10.861,-34.642 0,-21.577 0,0" /></g><g
           transform="translate(420.4435,101.0971)"
           id="g44"><path
             id="path46"
             style="fill:#003a20;fill-opacity:1;fill-rule:nonzero;stroke:none"
             d="m 0,0 h 23.631 c 0.441,-9.541 4.111,-15.853 17.764,-15.853 12.182,0 15.118,4.992 15.118,9.394 0,19.377 -54.9,3.67 -54.9,39.928 0,14.384 8.663,28.477 38.459,28.477 29.652,0 38.018,-14.093 38.459,-33.175 H 55.044 c -0.441,7.928 -2.789,14.387 -16,14.387 -11.008,0 -13.797,-4.405 -13.797,-8.369 0,-17.173 54.31,-2.789 54.31,-39.925 0,-13.506 -7.191,-29.506 -39.485,-29.506 C 10.861,-34.642 0,-21.577 0,0" /></g><g
           transform="translate(115.7289,15.1828)"
           id="g48"><path
             id="path50"
             style="fill:#d69e00;fill-opacity:1;fill-rule:nonzero;stroke:none"
             d="m 0,0 c 0,8.302 2.703,15.513 13.995,15.513 9.964,0 13.714,-5.595 13.714,-11.907 h -5.363 c -0.285,4.27 -2.468,7.591 -8.351,7.591 C 6.832,11.197 5.314,6.214 5.314,0 c 0,-6.214 1.518,-11.148 8.681,-11.148 5.932,0 8.066,3.128 8.351,7.637 h 5.363 c 0,-6.688 -3.704,-12.002 -13.714,-12.002 C 2.657,-15.513 0,-8.302 0,0" /></g><g
           transform="translate(178.4252,3.9855)"
           id="g52"><path
             id="path54"
             style="fill:#d69e00;fill-opacity:1;fill-rule:nonzero;stroke:none"
             d="M 0,0 C 7.64,0 9.205,4.983 9.205,11.148 9.205,17.46 7.64,22.395 0,22.395 -7.542,22.395 -9.159,17.46 -9.159,11.246 -9.159,4.983 -7.542,0 0,0 m -14.473,11.246 c 0,8.302 2.847,15.465 14.473,15.465 11.718,0 14.473,-7.163 14.473,-15.563 0,-8.206 -2.755,-15.464 -14.473,-15.464 -11.672,0 -14.473,7.258 -14.473,15.562" /></g><g
           transform="translate(215.3107,30.3656)"
           id="g56"><path
             id="path58"
             style="fill:#d69e00;fill-opacity:1;fill-rule:nonzero;stroke:none"
             d="m 0,0 h 7.732 l 8.828,-20.687 c 0.521,-1.233 0.949,-2.608 1.421,-3.936 -0.046,0 0.903,2.703 1.426,3.936 L 28.229,0 H 36.01 V -30.366 H 30.794 V -6.312 L 20.592,-30.366 H 15.373 L 5.173,-6.312 V -30.366 H 0 Z" /></g><g
           transform="translate(285.9351,14.4236)"
           id="g60"><path
             id="path62"
             style="fill:#d69e00;fill-opacity:1;fill-rule:nonzero;stroke:none"
             d="m 0,0 c 6.312,0 6.973,3.226 6.973,5.788 0,2.563 -0.71,5.884 -7.114,5.884 H -6.073 V 0 Z m -11.292,15.942 h 10.961 c 11.623,0 12.667,-5.932 12.667,-10.154 0,-4.129 -0.618,-9.963 -12.287,-9.963 h -6.122 v -10.249 h -5.219 z" /></g><g
           transform="translate(325.6185,26.0954)"
           id="g64"><path
             id="path66"
             style="fill:#d69e00;fill-opacity:1;fill-rule:nonzero;stroke:none"
             d="M 0,0 H -8.73 V 4.27 H 13.808 V 0 H 5.078 V -26.095 H 0 Z" /></g><g
           transform="translate(374.5523,9.728)"
           id="g68"><path
             id="path70"
             style="fill:#d69e00;fill-opacity:1;fill-rule:nonzero;stroke:none"
             d="M 0,0 -6.122,17.27 -12.287,0 Z m -9.538,20.638 h 7.071 L 8.92,-9.728 H 3.367 L 1.328,-3.796 H -13.57 l -2.182,-5.932 h -5.455 z" /></g></g></g></g></svg>