<?xml version="1.0" encoding="UTF-8"?>
<svg id="Calque_2" data-name="Calque 2" xmlns="http://www.w3.org/2000/svg" viewBox="0 0 121.32 127.6">
  <defs>
    <style>
      .cls-1 {
        fill: #35b4cf;
      }

      .cls-2 {
        fill: none;
        stroke: #344154;
        stroke-linecap: round;
        stroke-linejoin: round;
        stroke-width: 3px;
      }
    </style>
  </defs>
  <g id="Icon_Set" data-name="Icon Set">
    <g>
      <path class="cls-2" d="M67.5,118.66H7.23c-3.17,0-5.73-2.57-5.73-5.73V7.23C1.5,4.07,4.07,1.5,7.23,1.5h85.95c3.17,0,5.73,2.57,5.73,5.73v61.77"/>
      <line class="cls-2" x1="10.22" y1="22.52" x2="39.87" y2="22.52"/>
      <line class="cls-2" x1="10.22" y1="42.92" x2="25.38" y2="42.92"/>
      <line class="cls-2" x1="58.72" y1="42.92" x2="73.32" y2="42.92"/>
      <path class="cls-2" d="M35.53,37.42h0c1.9,0,3.44,1.54,3.44,3.44v4.11c0,1.9-1.54,3.44-3.44,3.44h0c-1.9,0-3.44-1.54-3.44-3.44"/>
      <path class="cls-2" d="M48.68,37.42h0c1.9,0,3.44,1.54,3.44,3.44v4.11c0,1.9-1.54,3.44-3.44,3.44h0c-1.9,0-3.44-1.54-3.44-3.44"/>
      <path class="cls-2" d="M49.6,17.02h0c1.9,0,3.44,1.54,3.44,3.44v4.11c0,1.9-1.54,3.44-3.44,3.44h0c-1.9,0-3.44-1.54-3.44-3.44"/>
      <path class="cls-2" d="M62.75,17.02h0c1.9,0,3.44,1.54,3.44,3.44v4.11c0,1.9-1.54,3.44-3.44,3.44h0c-1.9,0-3.44-1.54-3.44-3.44"/>
      <path class="cls-2" d="M75.9,17.02h0c1.9,0,3.44,1.54,3.44,3.44v4.11c0,1.9-1.54,3.44-3.44,3.44h0c-1.9,0-3.44-1.54-3.44-3.44"/>
      <path class="cls-2" d="M26.81,59.64h0c1.9,0,3.44,1.54,3.44,3.44v4.11c0,1.9-1.54,3.44-3.44,3.44h0c-1.9,0-3.44-1.54-3.44-3.44"/>
      <path class="cls-2" d="M39.96,59.64h0c1.9,0,3.44,1.54,3.44,3.44v4.11c0,1.9-1.54,3.44-3.44,3.44h0c-1.9,0-3.44-1.54-3.44-3.44"/>
      <line class="cls-2" x1="49.6" y1="65.14" x2="61.25" y2="65.14"/>
      <line class="cls-2" x1="10.22" y1="65.14" x2="17.8" y2="65.14"/>
      <g>
        <path class="cls-2" d="M119.82,115.73v4.27c0,1.62-1.09,3.03-2.65,3.45h0c-13.27,3.54-27.23,3.54-40.5,0h0c-1.56-.42-2.65-1.83-2.65-3.45v-4.27"/>
        <path class="cls-2" d="M119.82,102.63v4.27c0,1.62-1.09,3.03-2.65,3.45h0c-13.27,3.54-27.23,3.54-40.5,0h0c-1.56-.42-2.65-1.83-2.65-3.45v-4.27"/>
        <path class="cls-2" d="M119.82,89.53v4.27c0,1.62-1.09,3.03-2.65,3.45h0c-13.27,3.54-27.23,3.54-40.5,0h0c-1.56-.42-2.65-1.83-2.65-3.45v-4.27"/>
        <path class="cls-2" d="M119.82,81.78c0,3.58-10.25,6.48-22.9,6.48s-22.9-2.9-22.9-6.48,10.25-6.49,22.9-6.49,22.9,2.9,22.9,6.49Z"/>
      </g>
      <path class="cls-1" d="M43.79,112.66l-4.86-1.47c-14.34-4.35-25.88-15.06-31.29-29.03l-.15-.38v30.88h36.29Z"/>
    </g>
  </g>
</svg>