<?xml version="1.0" encoding="UTF-8"?>
<svg id="Calque_2" data-name="Calque 2" xmlns="http://www.w3.org/2000/svg" viewBox="0 0 128.75 131.49">
  <defs>
    <style>
      .cls-1 {
        fill: #35b4cf;
      }

      .cls-2 {
        fill: none;
        stroke: #344154;
        stroke-linecap: round;
        stroke-linejoin: round;
        stroke-width: 3px;
      }
    </style>
  </defs>
  <g id="Icon_Set" data-name="Icon Set">
    <g>
      <path class="cls-2" d="M68.71,104.31H8.4c-3.81,0-6.9-3.09-6.9-6.9V8.4c0-3.81,3.09-6.9,6.9-6.9h111.94c3.81,0,6.9,3.09,6.9,6.9v77.89"/>
      <path class="cls-2" d="M18.4,15.08c0-.65-.53-1.18-1.18-1.18s-1.18.53-1.18,1.18.53,1.18,1.18,1.18,1.18-.53,1.18-1.18Z"/>
      <path class="cls-2" d="M31.89,15.08c0-.65-.53-1.18-1.18-1.18s-1.18.53-1.18,1.18.53,1.18,1.18,1.18,1.18-.53,1.18-1.18Z"/>
      <path class="cls-2" d="M45.38,15.08c0-.65-.53-1.18-1.18-1.18s-1.18.53-1.18,1.18.53,1.18,1.18,1.18,1.18-.53,1.18-1.18Z"/>
      <line class="cls-2" x1="1.5" y1="28.94" x2="127.25" y2="28.94"/>
      <line class="cls-2" x1="65.02" y1="15.22" x2="115.12" y2="15.22"/>
      <g>
        <g>
          <path class="cls-2" d="M94.14,78.12v-21.3c0-2.16-1.75-3.91-3.91-3.91h0c-2.16,0-3.91,1.75-3.91,3.91v27.71"/>
          <path class="cls-2" d="M101.96,78.12v-6.06c0-2.16-1.75-3.91-3.91-3.91h0"/>
          <path class="cls-2" d="M109.79,78.12v-3.47c0-2.16-1.75-3.91-3.91-3.91h0"/>
          <path class="cls-2" d="M111.26,116.66c-.15-7.21.43-8.58.43-8.58,0,0,.35-1.8,1.09-4.08,2.27-7.06,3.5-14.41,3.69-21.82l.03-3.3c0-2.16-1.75-3.91-3.91-3.91h0"/>
          <path class="cls-2" d="M82.8,74.47c-.86-1-2.14-1.61-3.51-1.61h0c-2.31,0-3.54,1.31-3.92,2.61-.04.12-.07.24-.1.36-.31,1.31-.14,2.68.38,3.93.92,2.22,2.35,6.74,1.56,12.73-.46,3.47.36,6.98,2.34,9.86,1.26,1.83,2.77,3.9,4.34,5.81,0,0,3.88,3.83,3.88,8.52"/>
          <line class="cls-2" x1="112.59" y1="74.97" x2="109.79" y2="74.97"/>
          <line class="cls-2" x1="105.88" y1="70.73" x2="101.73" y2="70.73"/>
          <line class="cls-2" x1="98.05" y1="68.14" x2="94.14" y2="68.14"/>
        </g>
        <path class="cls-2" d="M83.35,129.99v-11.11c0-1.22.99-2.22,2.22-2.22h27.91c1.22,0,2.22.99,2.22,2.22v11.11"/>
      </g>
      <polyline class="cls-2" points="16.2 54.88 16.2 44.43 52.97 44.43 52.97 54.88"/>
      <rect class="cls-1" x="16.2" y="64.24" width="36.77" height="7.08"/>
      <rect class="cls-1" x="16.2" y="79.78" width="36.77" height="7.08"/>
    </g>
  </g>
</svg>